<?xml version="1.0" encoding="UTF-8"?><svg xmlns="http://www.w3.org/2000/svg" xmlns:xlink="http://www.w3.org/1999/xlink" viewBox="0 0 1042.18 220.64" width="100%" height="100%"><defs><style>.cls-1{fill:none;}.cls-2{clip-path:url(#clip-path);}.cls-3{fill:#0063bc;}.cls-4{fill:#2e8ffe;}.cls-5{fill:#002a68;}.cls-6{fill:#fefefe;}.cls-7{fill:#404040;}.cls-8{fill:#010101;}</style><clipPath id="clip-path" transform="translate(0)"><rect class="cls-1" width="1042.18" height="220.67"/></clipPath></defs><title>Asset 1</title><g id="Layer_2" data-name="Layer 2"><g id="Layer_1-2" data-name="Layer 1"><g class="cls-2"><path class="cls-3" d="M129.21,80.47h58.93a2.66,2.66,0,0,1,2.48,1.31,110.54,110.54,0,0,1,16.45,39.46,126.15,126.15,0,0,1,2.72,24.42c.36,24.5-5.11,47.39-18.61,68.08-1.35,2.06-2.92,4-4.35,6a2,2,0,0,1-1.9.89H149.24c-1.05,0-1.38-.26-1.27-1.32.67-6.2-4.36-10.49-10.12-11a18.1,18.1,0,0,0-16.22,6.75,10.79,10.79,0,0,0-2.31,4.37c-.25,1.07-.76,1.19-1.67,1.19H57.05c1-1.36,1.9-2.49,2.74-3.64,9.1-12.42,14.82-26.32,18.11-41.29a138.35,138.35,0,0,0,2.92-32.48c0-1.61-.41-2.13-2.13-2.12-17.28.08-34.56,0-51.83,0-.67,0-1.41.26-2-.29-.2-.49-.29-.93.45-1a4.59,4.59,0,0,0,2.49.54H78.16c2,0,2,0,1.85-2A121.32,121.32,0,0,0,70.58,99.2a110.89,110.89,0,0,0-9.64-17.51c-.56-1.13,0-1.59,1.05-1.7a17.42,17.42,0,0,1,1.77,0h62.52c1,0,2.06-.22,2.93.52" transform="translate(0)"/><path class="cls-4" d="M129.21,80.47H63.06a8.34,8.34,0,0,1-1,0c-1.27-.17-1.25.38-.7,1.23-3,1.54-5.12,4.22-7.36,6.63A127.67,127.67,0,0,0,40.24,106a109.79,109.79,0,0,0-14.16,31.87c-.19.71-.2,1.52-.9,2l-.33,1c-.87.6-1.3,0-1.81-.6A103.09,103.09,0,0,1,6.51,109,122.12,122.12,0,0,1,.66,81.2C-1.61,56.72,1.89,33.26,13,11.13a108.55,108.55,0,0,1,5.83-10A2,2,0,0,1,20.74,0Q42.39.08,64,0c.72,0,1.42-.12,1.23,1-1,6,3.37,10.28,8.65,11.47C81.26,14.22,90.37,10,93.16,2.93,94.21.28,95.5,0,97.87,0c16.2.08,32.4,0,48.6,0h1.78c.23.61-.26.91-.49,1.27a113.57,113.57,0,0,0-16.3,40.83A147.7,147.7,0,0,0,129,75.48c0,1.66.13,3.33.19,5" transform="translate(0)"/><path class="cls-5" d="M25.18,139.87a106,106,0,0,1,13.28-31.79A129.82,129.82,0,0,1,59,82.72a2.87,2.87,0,0,1,2.41-1,93.55,93.55,0,0,1,10,18.32,118.68,118.68,0,0,1,8,28.57c.57,3.75.86,7.54,1.3,11.32.08.71-.22,1-.9,1H26.89c-.76,0-1.72.28-1.71-1" transform="translate(0)"/><path class="cls-6" d="M1042.18,76.65c-.76.79-1.94.12-2.72.83a34.15,34.15,0,0,0-2.94,5.49c-.32.58-.46,1.45-1.26,1.43s-1-.86-1.27-1.44c-.77-1.38-1.33-2.85-2-4.28a2.62,2.62,0,0,0-1-1.32c-.89-.48-1.81-.09-1.83.89-.09,4.11-.07,8.22,0,12.33,0,.53.15,1.06.83,1s.87-.62.88-1.19c.06-2.2,0-4.4,0-6.59,0-.74-.25-1.87.66-2,.74-.13.89,1,1.2,1.63.42.86.79,1.75,1.29,2.56.74,1.21,1.73,1.24,2.51.07a28.55,28.55,0,0,0,1.68-3.31c.25-.49.5-1.18,1.17-1s.51.82.52,1.32c0,2.19.08,4.39,0,6.58-.05,1.38.38,2.15,1.8,2.23a3.7,3.7,0,0,1,.46.31" transform="translate(0)"/><path class="cls-7" d="M1039,76.93c1-.61,2.09-.12,3.13-.28V92.22h-.36a3.06,3.06,0,0,1-.5-2.24c0-2.92-.1-5.84,0-8.76.08-2,0-3.67-2.29-4.24" transform="translate(0)"/><path d="M622.1,181.29h-1.67q-16.83,0-33.67.14a2.84,2.84,0,0,1-2.83-1.51q-12.16-19.65-24.45-39.27c-.34-.54-.7-1.09-1.31-2v41c0,1.42-.35,1.73-1.75,1.73q-14.46-.1-28.93,0c-1.23,0-1.72-.16-1.72-1.6q.08-71.58,0-143.17c0-1.46.45-1.74,1.81-1.73q14.46.09,28.93,0c1.32,0,1.65.32,1.65,1.65q-.06,37,0,73.95v2.3c1.89-2.54,3.54-4.75,5.18-7l20.83-28.32a2.34,2.34,0,0,1,2.2-1.09h35.54c0,.8-.59,1.16-1,1.61q-18.39,23-36.82,45.91a1.65,1.65,0,0,0-.19,2.32.3.3,0,0,0,.08.08q18.46,26.58,36.84,53.2l1.23,1.81" transform="translate(0)"/><path d="M933.86,112.74l18.7-25.39c2.47-3.35,5-6.71,7.41-10.07a1.76,1.76,0,0,1,1.59-1h36.36l-6.47,8.09q-15.81,19.72-31.65,39.42a1.75,1.75,0,0,0-.1,2.45l.1.09q18.68,26.91,37.3,53.88c.16.22.29.46.49.78a3,3,0,0,1-1.8.21H969.73c-2.53,0-5.07,0-7.6.14a2.36,2.36,0,0,1-2.41-1.35q-12.29-19.8-24.63-39.54l-1.23-1.91v40.83c0,1.62-.49,1.87-1.94,1.86q-14.48-.09-28.94,0c-1.14,0-1.51-.23-1.51-1.46V36.28c0-1.33.42-1.56,1.63-1.55q14.55.06,29.1,0c1.31,0,1.65.32,1.65,1.64q-.06,37,0,74Z" transform="translate(0)"/><path d="M306.67,35.08h58c1.56,0,2.1.27,2.08,2-.1,8.35-.08,16.7,0,25,0,1.36-.24,1.78-1.7,1.77-13.31-.06-26.62,0-39.94-.07-1.39,0-1.75.31-1.75,1.74q.06,56.94.07,113.88c0,1.45-.25,2-1.87,2q-15.06-.12-30.13,0c-1.37,0-1.75-.27-1.75-1.71q.07-57,.08-114.06c0-1.49-.36-1.81-1.83-1.81-13.31.07-26.62,0-39.93.08-1.34,0-1.65-.35-1.64-1.65q.09-12.69,0-25.39c0-1.4.32-1.75,1.74-1.75,19.52.06,39,0,58.55,0" transform="translate(0)"/><path d="M476.43,184.12c-10.67,0-20.27-1.62-29.12-6.35-12.46-6.65-20.7-16.84-24.34-30.49s-3.4-27.09,1.72-40.18c6.79-17.39,19.78-28,37.89-32.07,13.84-3.11,27.56-1.88,40.95,2.67,5,1.69,9.41,4.52,14,7,.64.36.54.66.22,1.15Q510.29,97.42,502.87,109c-.55.87-1,.59-1.55.14a51.36,51.36,0,0,0-9.54-6c-14-6.14-32.1-.21-36.47,18.42a33.32,33.32,0,0,0,1.22,20.11c3.94,10.08,12.9,15.44,23.7,14.83,7.22-.4,13.53-3.06,19.65-6.52,1.66-.94,3.33-1.89,5-2.87.59-.36.9-.39,1.24.35q5.72,12.4,11.53,24.76c.33.71.15.93-.48,1.23-9.9,4.69-20,8.84-31,10.05-3.47.38-6.95.59-9.7.62" transform="translate(0)"/><path d="M851.9,73.45a69.59,69.59,0,0,1,38,11.15c.71.45.89.68.38,1.47q-7.39,11.4-14.69,22.86c-.53.82-.88.86-1.65.27a74.78,74.78,0,0,0-7.43-5c-12.11-7.15-32.6-3.85-38.23,16a32.81,32.81,0,0,0,1.25,22.33c4.1,9.55,12.86,14.46,23.29,13.94,8.15-.4,15-3.88,21.86-7.73,1.19-.68,2.5-2.15,3.58-1.76.91.33,1.26,2.23,1.83,3.45l10,21.37c.3.64.72,1.15-.4,1.66-7.94,3.59-15.83,7.28-24.49,8.91-13.79,2.61-27.5,2.85-40.69-2.58-16.3-6.71-26.22-19-29.75-36.24-2.62-12.78-2.06-25.5,3-37.64,7-16.77,19.86-26.86,37.48-31a69,69,0,0,1,16.59-1.53" transform="translate(0)"/><path d="M782.28,129q0,25.29.05,50.58c0,1.55-.44,1.8-1.86,1.79q-14.47-.09-28.93,0c-1.29,0-1.55-.33-1.55-1.57V78.12c0-1.42.37-1.75,1.77-1.74q14.46.09,28.93,0c1.38,0,1.63.42,1.63,1.69q-.06,25.47,0,50.93" transform="translate(0)"/><path d="M411.42,129v50.42c0,1.44-.23,2-1.87,2-9.69-.1-19.4-.07-29.1,0-1.19,0-1.47-.31-1.47-1.48Q379,129,379,78.08c0-1.35.37-1.66,1.68-1.65q14.55.09,29.1,0c1.36,0,1.66.39,1.66,1.69q-.06,25.47,0,50.93" transform="translate(0)"/><path d="M395.79,35.19H410c1.06,0,1.29.29,1.29,1.31q-.06,12.78,0,25.52c0,1-.26,1.31-1.3,1.31q-14.19-.07-28.4,0c-1.07,0-1.44-.23-1.44-1.39q.08-12.66,0-25.36c0-1.17.39-1.39,1.45-1.38h14.2" transform="translate(0)"/><path d="M766.82,35.19h14c1.08,0,1.41.24,1.4,1.37q-.08,12.69,0,25.35c0,1-.2,1.43-1.35,1.42q-14.11-.07-28.23,0c-1.11,0-1.57-.19-1.56-1.45q.09-12.57,0-25.19c0-1.19.33-1.51,1.51-1.49,4.73.06,9.46,0,14.19,0" transform="translate(0)"/><path d="M1039.05,76.93c2.79.15,2.79.15,2.79,2.95V92.17q-.42,0-.84.06c-1.18.19-1.66-.13-1.6-1.49a65.72,65.72,0,0,0-.22-8.76c-.73,1.45-1.48,2.88-2.17,4.34a1.68,1.68,0,0,1-1.73,1.22c-1,0-1.32-.49-1.66-1.27a24.35,24.35,0,0,0-2.31-4.22v8.78c0,1.06-.22,1.45-1.37,1.44s-1.41-.29-1.39-1.4c.07-4.17,0-8.34,0-12.51,0-.55-.53-1.58.57-1.6s2.23-.62,2.88.92c1,2.27,2.08,4.47,3.19,6.8l3.8-7.55" transform="translate(0)"/><path class="cls-8" d="M1017.47,85.73V80.32c0-.86-.2-1.24-1.11-1.14a13.45,13.45,0,0,1-1.68,0c-1,.1-1.52-.09-1.51-1.33s.64-1.18,1.49-1.17c2.87,0,5.74.06,8.62,0,1,0,1.33.27,1.32,1.31s-.28,1.22-1.24,1.23c-3.15,0-3.14.07-3.14,3.16,0,2.93-.07,5.86,0,8.79,0,1.36-.79,1-1.51,1.06s-1.37,0-1.31-1.1c.11-1.79,0-3.6,0-5.4" transform="translate(0)"/><path d="M633.3,108.18V37c0-1.56.4-1.91,1.92-1.91,17.66.06,35.31-.07,53,.08,8.45.07,17,.39,24.84,4,9.78,4.46,18.13,10.77,22.71,20.93,3.18,7.07,3.82,14.65,3.71,22.3-.14,8.79-1.83,17.23-6.1,25-6.78,12.37-17.38,19.78-30.78,23.48-10.88,3-22,3.49-33.19,2.81-2.36-.14-2.36-.18-2.36,2.15v43.83c0,1.4-.32,1.76-1.74,1.75q-15.22-.09-30.46,0c-1.29,0-1.55-.34-1.54-1.57q.06-35.79,0-71.58m33.71-5.1c0,1,.25,1.41,1.24,1.42,2.55,0,5.09-.09,7.64,0a53.66,53.66,0,0,0,14.56-1.4c6.18-1.58,11.06-4.71,13.16-11.11a29.94,29.94,0,0,0,1.1-12.69A16.6,16.6,0,0,0,701.05,70c-3.33-3.92-7.85-5.3-12.71-5.82-6.74-.73-13.52-.2-20.28-.38-1.23,0-1,.69-1,1.4v38" transform="translate(0)"/></g></g></g></svg>