<svg xmlns="http://www.w3.org/2000/svg" width="100" height="100" viewBox="0 0 100 100" aria-labelledby="mliveLogoTitle mliveLogoDesc" role="img"><title id="mliveLogoTitle">mlive.com logo</title><desc id="mliveLogoDesc">The MLIVE.com white and yellowlettering on a blue background</desc><style>.a{fill:#F6891F;}</style><g fill="none"><polygon points="0 100 100 100 100 0 0 0" fill="#003649"/><g transform="translate(14.0625 14.583334)"><path d="M72 44.8L72 15.1C72 8.1 68.2 0.4 57.1 0.4 46.3 0.4 43 6.7 42.3 7.2 40.3 2.9 35.3 0.4 30.6 0.4 24.6 0.4 19.8 2.3 16.4 7.3L16.3 7.3 16.3 1.5 0.3 1.5 0.3 44.8 7.2 44.8 7.2 44.9 16.9 44.9 16.9 21.4C16.9 16.9 18.3 13.6 22.5 13.6 27.5 13.6 27.9 17.3 27.9 21.4L27.9 44.9 27.9 44.9 27.9 44.8 35.4 44.8 35.4 44.9 44.4 44.9 44.4 21.4C44.4 16.9 45.8 13.6 50 13.6 55 13.6 55.4 17.3 55.4 21.4L55.4 44.8 72 44.8Z" fill="#FFF"/><polygon points="0.3 44.8 0.3 44.9 0.3 70.4 17 70.4 17 64.7 7.2 64.7 7.2 44.9 7.2 44.8" class="a"/><rect x="19.8" y="44.8" width="6.9" height="25.6" class="a"/><path d="M27.9 44.8L27.9 44.9 36 70.4 44.1 70.4 52.5 44.8 45.2 44.8 42.4 55C41.7 57.7 40.9 60.7 40.3 63.8L40.2 63.8C39.7 60.8 39 57.8 38.1 54.9L35.4 44.9 35.4 44.8 27.9 44.8Z" class="a"/><polygon points="62.3 60.1 71.4 60.1 71.4 54.6 62.3 54.6 62.3 50.4 72 50.4 72 44.8 72 44.8 55.4 44.8 55.4 44.9 55.4 70.4 72.5 70.4 72.5 64.8 62.3 64.8" class="a"/></g></g></svg>